<svg xmlns="http://www.w3.org/2000/svg" xmlns:xlink="http://www.w3.org/1999/xlink" id="????????_1" width="48" height="48" x="0" y="0" contentScriptType="application/ecmascript" contentStyleType="text/css" enable-background="new 0 0 48 48" preserveAspectRatio="xMidYMid meet" version="1.1" viewBox="0 0 48 48" zoomAndPan="magnify" xml:space="preserve" style="fill:#06f"><g><polygon fill="#B0BEC5" points="42 12 39 12 39 9 36 9 36 6 42 6"/><polygon fill="#B0BEC5" points="9 12 6 12 6 6 12 6 12 9 9 9"/><polygon fill="#B0BEC5" points="42 36 39 36 39 39 36 39 36 42 42 42"/><polygon fill="#B0BEC5" points="9 36 6 36 6 42 12 42 12 39 9 39"/><rect width="3" height="6" x="6" y="16" fill="#B0BEC5"/><rect width="3" height="6" x="6" y="26" fill="#B0BEC5"/><rect width="3" height="6" x="39" y="16" fill="#B0BEC5"/><rect width="3" height="6" x="39" y="26" fill="#B0BEC5"/><rect width="6" height="3" x="26" y="6" fill="#B0BEC5"/><rect width="6" height="3" x="16" y="6" fill="#B0BEC5"/><rect width="6" height="3" x="26" y="39" fill="#B0BEC5"/><rect width="6" height="3" x="16" y="39" fill="#B0BEC5"/></g><g><rect width="23" height="2" x="13" y="14" fill="#2196F3"/><rect width="20" height="2" x="13" y="20" fill="#2196F3"/><rect width="23" height="2" x="13" y="26" fill="#2196F3"/><rect width="20" height="2" x="13" y="32" fill="#2196F3"/></g></svg>